<svg xmlns="http://www.w3.org/2000/svg" xmlns:xlink="http://www.w3.org/1999/xlink" width="713.386" height="713.386" viewBox="0 0 188.75 188.75"><defs><linearGradient id="a"><stop offset="0" stop-color="#dddbd8"/><stop offset="1" stop-color="#f5f4f2"/></linearGradient><linearGradient id="b"><stop offset="0" stop-color="#0b394d"/><stop offset="1" stop-color="#0b394d" stop-opacity="0"/></linearGradient><linearGradient id="l"><stop offset="0" stop-color="#2fa8de"/><stop offset="1" stop-color="#187ba7"/></linearGradient><linearGradient id="k"><stop offset="0" stop-color="#176181"/><stop offset="1" stop-color="#1d7ca5"/></linearGradient><linearGradient id="j"><stop offset="0" stop-color="#fff"/><stop offset="1" stop-color="#fff" stop-opacity="0"/></linearGradient><linearGradient id="i"><stop offset="0" stop-color="#1c91c5"/><stop offset="1" stop-color="#105370"/></linearGradient><linearGradient id="h"><stop offset="0" stop-color="#ffd34e"/><stop offset="1" stop-color="#9a500f"/></linearGradient><linearGradient id="g"><stop offset="0" stop-color="#69aa22"/><stop offset="1" stop-color="#3c6113"/></linearGradient><linearGradient id="f"><stop offset="0" stop-color="#0d232b"/><stop offset="1" stop-color="#3797be"/></linearGradient><linearGradient id="e"><stop offset="0" stop-color="#2d6cb4"/><stop offset="1" stop-color="#112944"/></linearGradient><linearGradient id="d"><stop offset="0" stop-color="#8d1924"/><stop offset="1" stop-color="#ca2333"/></linearGradient><linearGradient id="c"><stop offset="0" stop-color="#fe7f2d"/><stop offset="1" stop-color="#9b3d01"/></linearGradient><filter id="m" x="-.023" width="1.046" y="-.061" height="1.122" color-interpolation-filters="sRGB"><feGaussianBlur stdDeviation=".451"/></filter><linearGradient xlink:href="#b" id="n" x1="1362.204" y1="-3.47" x2="1384.769" y2="166.371" gradientUnits="userSpaceOnUse" gradientTransform="matrix(1 0 -.26718 -.37368 29.058 152.442)"/><linearGradient xlink:href="#c" id="o" x1="1615.979" y1="-135.366" x2="1617.064" y2="-68.463" gradientUnits="userSpaceOnUse"/><linearGradient xlink:href="#d" id="p" x1="1540.698" y1="-489.51" x2="1543.201" y2="-549.335" gradientUnits="userSpaceOnUse"/><linearGradient xlink:href="#e" id="q" x1="1365.692" y1="-928.713" x2="1369.006" y2="-869.45" gradientUnits="userSpaceOnUse"/><linearGradient xlink:href="#f" id="r" x1="1094.515" y1="-1193.127" x2="1095.538" y2="-1259.357" gradientUnits="userSpaceOnUse"/><linearGradient xlink:href="#g" id="s" x1="745.378" y1="-1503.903" x2="748.051" y2="-1459.349" gradientUnits="userSpaceOnUse"/><linearGradient xlink:href="#h" id="t" x1="351.377" y1="-1652.028" x2="357.181" y2="-1616.403" gradientUnits="userSpaceOnUse"/><linearGradient xlink:href="#i" id="u" x1="1661.553" y1="-74.094" x2="1561.994" y2="-5.706" gradientUnits="userSpaceOnUse"/><linearGradient xlink:href="#j" id="v" x1="1682.488" y1="-39.52" x2="1669.207" y2="-39.41" gradientUnits="userSpaceOnUse"/><linearGradient xlink:href="#k" id="x" x1="1674.696" y1="-60.264" x2="1685.123" y2="-60.264" gradientUnits="userSpaceOnUse"/><clipPath clipPathUnits="userSpaceOnUse" id="w"><rect width="90.441" height="58.392" x="1592.816" y="-85.399" rx="10.057" ry="10.057" fill="#3d83cf" stroke-width="1.5" stroke-linecap="round" stroke-linejoin="round" paint-order="stroke fill markers"/></clipPath><linearGradient xlink:href="#l" id="B" x1="1666.386" y1="-61.718" x2="1658.004" y2="-51.939" gradientUnits="userSpaceOnUse"/><linearGradient xlink:href="#k" id="y" gradientUnits="userSpaceOnUse" x1="1674.696" y1="-60.264" x2="1685.123" y2="-60.264"/><linearGradient xlink:href="#k" id="z" gradientUnits="userSpaceOnUse" x1="1674.696" y1="-60.264" x2="1685.123" y2="-60.264"/><linearGradient xlink:href="#k" id="A" gradientUnits="userSpaceOnUse" x1="1674.696" y1="-60.264" x2="1685.123" y2="-60.264"/></defs><g stroke-width=".353" paint-order="stroke fill markers"><path transform="matrix(-2.83108 0 0 2.83108 4032.454 -160.517)" d="M1365.46 94.015c-.78 0-1.24.235-1.032.527l4.772 6.675-3.582.386c-.814.088-1.363.368-1.449.693a.769.769 0 0 0-.075.06c-.145.133-.19.289-.115.458a.44.44 0 0 0 .06.103l5.608 7.842c.05.07.117.137.198.202.165.131.39.253.66.36.202.08.424.15.669.212a7.823 7.823 0 0 0 1.872.228h35.45c.093 0 .183-.002.271-.005.264-.01.505-.035.72-.073a3.672 3.672 0 0 0 .389-.092c.117-.036.22-.077.309-.123.266-.135.4-.31.367-.507-.01-.032-.016-.065-.03-.1a.44.44 0 0 0-.06-.102l-1.712-2.394-2.184-3.054-1.712-2.394c-.025-.035-.049-.07-.087-.103a1.265 1.265 0 0 0-.112-.1 2.637 2.637 0 0 0-.659-.358 4.99 4.99 0 0 0-.434-.149 6.51 6.51 0 0 0-.484-.122 7.827 7.827 0 0 0-.521-.092h-.001a8.001 8.001 0 0 0-.823-.073 8.48 8.48 0 0 0-.278-.005h-1.344l-.413-.288-1.235-.862c-.262-.184-.731-.318-1.22-.368.114-.155-.013-.349-.386-.513l-3.393-1.501c-.372-.165-.891-.258-1.366-.263 0-.014-.01-.029-.011-.043v-.018l-.01-.001c-.062-.154-.306-.314-.708-.432l-4.157-1.226a3.987 3.987 0 0 0-1.42-.14c-.01-.008-.012-.017-.018-.026a.872.872 0 0 0-.099-.084l-.029-.021a1.152 1.152 0 0 0-.139-.081 2.787 2.787 0 0 0-.728-.228l-4.638-.867c-.508-.095-1.022-.09-1.378-.007-.019-.01-.03-.02-.047-.029a1.436 1.436 0 0 0-.14-.072c-.012-.004-.013-.009-.024-.012a2.88 2.88 0 0 0-.363-.126v-.002a3.969 3.969 0 0 0-.66-.116l-4.802-.45c-.525-.048-.983.005-1.24.126l-.023-.008c-.01-.007-.037-.013-.046-.02l-.168-.058c-.018-.007-.046-.013-.064-.02a3.552 3.552 0 0 0-.17-.042l-.114-.025-.05-.01a4.149 4.149 0 0 0-.213-.032l-.036-.005a4.25 4.25 0 0 0-.233-.021h-.012a4.02 4.02 0 0 0-.241-.009z" opacity=".668" fill="none" filter="url(#m)"/><path d="M1365.46 94.015c-.78 0-1.24.235-1.032.527l4.772 6.675-3.582.386c-.814.088-1.363.368-1.449.693a.769.769 0 0 0-.075.06c-.145.133-.19.289-.115.458a.44.44 0 0 0 .06.103l5.608 7.842c.05.07.117.137.198.202.165.131.39.253.66.36.202.08.424.15.669.212a7.823 7.823 0 0 0 1.872.228h35.45c.093 0 .183-.002.271-.005.264-.01.505-.035.72-.073a3.672 3.672 0 0 0 .389-.092c.117-.036.22-.077.309-.123.266-.135.4-.31.367-.507-.01-.032-.016-.065-.03-.1a.44.44 0 0 0-.06-.102l-1.712-2.394-2.184-3.054-1.712-2.394c-.025-.035-.049-.07-.087-.103a1.265 1.265 0 0 0-.112-.1 2.637 2.637 0 0 0-.659-.358 4.99 4.99 0 0 0-.434-.149 6.51 6.51 0 0 0-.484-.122 7.827 7.827 0 0 0-.521-.092h-.001a8.001 8.001 0 0 0-.823-.073 8.48 8.48 0 0 0-.278-.005h-1.344l-.413-.288-1.235-.862c-.262-.184-.731-.318-1.22-.368.114-.155-.013-.349-.386-.513l-3.393-1.501c-.372-.165-.891-.258-1.366-.263 0-.014-.01-.029-.011-.043v-.018l-.01-.001c-.062-.154-.306-.314-.708-.432l-4.157-1.226a3.987 3.987 0 0 0-1.42-.14c-.01-.008-.012-.017-.018-.026a.872.872 0 0 0-.099-.084l-.029-.021a1.152 1.152 0 0 0-.139-.081 2.787 2.787 0 0 0-.728-.228l-4.638-.867c-.508-.095-1.022-.09-1.378-.007-.019-.01-.03-.02-.047-.029a1.436 1.436 0 0 0-.14-.072c-.012-.004-.013-.009-.024-.012a2.88 2.88 0 0 0-.363-.126v-.002a3.969 3.969 0 0 0-.66-.116l-4.802-.45c-.525-.048-.983.005-1.24.126l-.023-.008c-.01-.007-.037-.013-.046-.02l-.168-.058c-.018-.007-.046-.013-.064-.02a3.552 3.552 0 0 0-.17-.042l-.114-.025-.05-.01a4.149 4.149 0 0 0-.213-.032l-.036-.005a4.25 4.25 0 0 0-.233-.021h-.012a4.02 4.02 0 0 0-.241-.009z" transform="matrix(2.83108 0 0 2.32568 -3843.704 -104.032)" opacity=".668" fill="url(#n)" filter="url(#m)"/><g transform="matrix(1.27764 0 0 1.27764 -1999.051 193.91)" stroke-width=".783"><rect transform="skewY(-15) scale(.96593 1)" width="73.705" height="45.965" x="1649.946" y="341.043" rx="4.84" ry="4.84" fill="#0b394d"/><g transform="matrix(.85843 0 0 .85843 223.836 -13.968)" stroke-width=".912"><rect width="19.248" height="76.835" x="1611.204" y="-137.777" rx="3.636" ry="3.636" fill="url(#o)"/><path d="M1627.424-137.722a3.623 3.623 0 0 0-1.065 1.748l-15.155 56.557v14.84c0 .11.007.22.017.328l11.273 3.02a3.628 3.628 0 0 0 4.452-2.57l3.506-13.083v-57.259a3.625 3.625 0 0 0-3.028-3.581z" opacity=".072"/><rect ry="3.636" rx="3.636" y="-554.992" x="1538.616" height="76.835" width="19.248" transform="rotate(15)" fill="url(#p)"/><path d="M1645.961-133.348c-1 .192-1.914.798-2.465 1.753l-28.63 49.589-3.98 14.852c-.106.4-.14.8-.114 1.19l8.225 4.748 4.292 1.15a3.62 3.62 0 0 0 2.095-1.662l7.418-12.85 14.68-54.786a3.627 3.627 0 0 0-1.52-3.984z" opacity=".072"/><rect transform="rotate(30)" width="19.248" height="76.835" x="1360.518" y="-939.205" rx="3.636" ry="3.636" fill="url(#q)"/><path d="M1661.486-123.998c-.929 0-1.858.357-2.57 1.069l-40.108 40.107-7.562 13.098a3.622 3.622 0 0 0-.47 2.174l4.148 4.148 7.112 4.106a3.631 3.631 0 0 0 1.3-.835l10.875-10.873 28.485-49.34a3.625 3.625 0 0 0 .13-3.396 3.628 3.628 0 0 0-1.34-.258z" opacity=".072"/><rect ry="3.636" rx="3.636" y="-1264.23" x="1089.047" height="76.835" width="19.248" transform="rotate(45)" fill="url(#r)"/><path d="M1673.289-111.058a3.632 3.632 0 0 0-1.722.49l-49.34 28.486-9.968 9.968a3.626 3.626 0 0 0-.898 3.664l.777 1.344c.04.045.077.091.12.134l8.118 8.117c.194-.071.386-.156.572-.263l13.098-7.562 41.011-41.012a3.622 3.622 0 0 0 1.04-2.15 3.627 3.627 0 0 0-2.808-1.216z" opacity=".072"/><rect transform="rotate(60)" width="19.248" height="76.835" x="742.703" y="-1507.918" rx="3.636" ry="3.636" fill="url(#s)"/><path d="M1681.677-95.478a3.657 3.657 0 0 0-1.089.123l-56.023 15.012-10.71 6.183a3.628 3.628 0 0 0-1.33 4.967l5.987 10.37.015.024 13.468-3.609 51.727-29.865c.463-.267.842-.62 1.135-1.026a3.624 3.624 0 0 0-3.18-2.179z" opacity=".072"/><rect ry="3.636" rx="3.636" y="-1653.663" x="345.09" height="76.835" width="19.248" transform="rotate(75)" fill="url(#t)"/><path d="M1651.295-85.2l-35.368 9.477a3.628 3.628 0 0 0-2.571 4.453l3.1 11.568a3.628 3.628 0 0 0 4.452 2.57l67.193-18.004a3.628 3.628 0 0 0 2.571-4.453l-1.503-5.61z" opacity=".061" fill="#0a1003"/></g><rect ry="5.943" rx="5.943" y="-85.399" x="1592.816" height="58.392" width="90.441" fill="url(#u)"/><path d="M1598.76-85.399a5.931 5.931 0 0 0-5.945 5.944v46.505a5.93 5.93 0 0 0 5.944 5.943h5.488a5.93 5.93 0 0 1-5.944-5.943v-46.505a5.931 5.931 0 0 1 5.944-5.944z" opacity=".096" fill="#061d27"/><path d="M1677.313-85.399a5.931 5.931 0 0 1 5.944 5.944v46.505a5.93 5.93 0 0 1-5.944 5.943h-5.488a5.93 5.93 0 0 0 5.944-5.943v-46.505a5.931 5.931 0 0 0-5.944-5.944z" opacity=".048" fill="url(#v)"/><g clip-path="url(#w)" fill="url(#x)"><rect width="38.442" height="18.113" x="1650.558" y="-63.552" rx="3.12" ry="3.12" opacity=".199" fill="url(#y)"/><rect ry="3.12" rx="3.12" y="-65.259" x="1651.334" height="18.113" width="38.442" fill="url(#z)"/><path d="M1676.89-65.26v18.114h6.367V-65.26z" opacity=".048" fill="url(#A)"/></g><circle r="4.661" cy="-55.543" cx="1659.874" opacity=".254" fill="#0e2135"/><circle cx="1660.301" cy="-56.203" r="4.661" fill="url(#B)"/></g></g></svg>